<svg width="120px" height="120px" viewBox="0 0 120 120" version="1.1" xmlns="http://www.w3.org/2000/svg" xmlns:xlink="http://www.w3.org/1999/xlink">
    <path d="M68.9620296,67.349323 L74.3042118,85.9797261 L93.1097052,90.6684622 L106.573017,76.7267952 L101.230834,58.0963921 L82.425341,53.407656 L68.9620296,67.349323 Z M107.647814,51.4514157 L115.536224,78.9615739 L95.655934,99.5482174 L67.8872326,92.6247025 L59.9988217,65.1145442 L79.8791121,44.5279008 L107.647814,51.4514157 Z M13.2088513,83.3362896 L18.5510334,101.966693 L37.3565268,106.655429 L50.8198382,92.7137618 L45.477656,74.0833587 L26.6721626,69.3946226 L13.2088513,83.3362896 Z M51.8946352,67.4383823 L59.7830461,94.9485406 L39.9027557,115.535184 L12.1340542,108.611669 L4.24564329,81.1015109 L24.1259338,60.5148674 L51.8946352,67.4383823 Z M40.766884,13.3380545 L27.3035727,27.2797215 L32.6457548,45.9101246 L51.4512482,50.5988607 L64.9145595,36.6571937 L59.5723774,18.0267906 L40.766884,13.3380545 Z M65.9893566,11.3818142 L73.8777675,38.8919725 L53.9974771,59.4786159 L26.2287756,52.555101 L18.3403647,25.0449427 L38.2206552,4.45829931 L65.9893566,11.3818142 Z" fill="#252a57"></path>
</svg>