<svg xmlns="http://www.w3.org/2000/svg" viewBox="0 0 180 120">
    <path id="media-xxl"
          d="M27,17h0a2,2,0,1,1,2-2A2,2,0,0,1,27,17Zm0-1a1,1,0,1,0-1-1A1,1,0,0,0,27,16Zm-5,1a2,2,0,1,1,2-2A2,2,0,0,1,22,17Zm0-1a1,1,0,1,0-1-1A1,1,0,0,0,22,16Zm-5,1a2,2,0,1,1,2-2A2,2,0,0,1,17,17Zm0-1a1,1,0,1,0-1-1A1,1,0,0,0,17,16Zm-5-4v88a2,2,0,0,0,2,2H166a2,2,0,0,0,2-2V12a2,2,0,0,0-2-2H14A2,2,0,0,0,12,12ZM70,120h40v-2H70Zm19-16v14h2V104ZM10,12a4,4,0,0,1,4-4H166a4,4,0,0,1,4,4v88a4,4,0,0,1-4,4H14a4,4,0,0,1-4-4Z"/>
    <path id="media-xl"
          d="M37,32a1,1,0,1,0-1-1A1,1,0,0,0,37,32Zm-5,0a1,1,0,1,0-1-1A1,1,0,0,0,32,32Zm-5,0a1,1,0,1,0-1-1A1,1,0,0,0,27,32Zm10,1a2,2,0,1,1,2-2A2,2,0,0,1,37,33Zm-5,0a2,2,0,1,1,2-2A2,2,0,0,1,32,33Zm-5,0a2,2,0,1,1,2-2A2,2,0,0,1,27,33Zm-5,79H158V28a2,2,0,0,0-2-2H24a2,2,0,0,0-2,2ZM2,114v2a2,2,0,0,0,2,2H176a2,2,0,0,0,2-2v-2ZM20,28a4,4,0,0,1,4-4H156a4,4,0,0,1,4,4v86H20ZM0,112H180v4a4,4,0,0,1-4,4H4a4,4,0,0,1-4-4Z"/>
    <path id="media-lg"
          d="M39,82a2,2,0,1,0-2-2A2,2,0,0,0,39,82Zm0,1a3,3,0,1,1,3-3A3,3,0,0,1,39,83ZM32,43v74a1,1,0,0,0,1,1H147a1,1,0,0,0,1-1V43a1,1,0,0,0-1-1H33A1,1,0,0,0,32,43Zm-2,0a3,3,0,0,1,3-3H147a3,3,0,0,1,3,3v74a3,3,0,0,1-3,3H33a3,3,0,0,1-3-3Z"/>
    <path id="media-md"
          d="M90,113a2,2,0,1,0-2-2A2,2,0,0,0,90,113Zm0,1a3,3,0,1,1,3-3A3,3,0,0,1,90,114ZM52,3V117a1,1,0,0,0,1,1h74a1,1,0,0,0,1-1V3a1,1,0,0,0-1-1H53A1,1,0,0,0,52,3ZM50,3a3,3,0,0,1,3-3h74a3,3,0,0,1,3,3V117a3,3,0,0,1-3,3H53a3,3,0,0,1-3-3Z"/>
    <path id="media-sm"
          d="M65,101a2,2,0,1,0-2-2A2,2,0,0,0,65,101Zm0,1a3,3,0,1,1,3-3A3,3,0,0,1,65,102ZM58,81v36a1,1,0,0,0,1,1h62a1,1,0,0,0,1-1V81a1,1,0,0,0-1-1H59A1,1,0,0,0,58,81Zm-2,0a3,3,0,0,1,3-3h62a3,3,0,0,1,3,3v36a3,3,0,0,1-3,3H59a3,3,0,0,1-3-3Z"/>
    <path id="media-xs"
          d="M90,113a2,2,0,1,0-2-2A2,2,0,0,0,90,113Zm0,1a3,3,0,1,1,3-3A3,3,0,0,1,90,114ZM71,55v62a1,1,0,0,0,1,1h36a1,1,0,0,0,1-1V55a1,1,0,0,0-1-1H72A1,1,0,0,0,71,55Zm-2,0a3,3,0,0,1,3-3h36a3,3,0,0,1,3,3v62a3,3,0,0,1-3,3H72a3,3,0,0,1-3-3Z"/>
</svg>