<svg version="1.1" id="Layer_1" xmlns="http://www.w3.org/2000/svg" xmlns:xlink="http://www.w3.org/1999/xlink" x="0px" y="0px"
	 width="32px" height="16px" viewBox="0 0 32 16" enable-background="new 0 0 32 16" xml:space="preserve">
	<defs>
        <linearGradient id="logoGradient">
            <stop offset="0%"  stop-color="#2fce6f"/>
            <stop offset="100%" stop-color="#9de263"/>
        </linearGradient>
    </defs>
<path fill="url(#logoGradient)" d="M8.09,5.06c0.81-0.84,1.88-0.88,2.72-0.08c0.84,0.81,0.88,1.88,0.08,2.72l-2.32,2.46l2.32,2.46
	c0.81,0.84,0.77,1.92-0.08,2.72c-0.84,0.81-1.92,0.77-2.72-0.08l-2.17-2.28l-2.17,2.28c-0.81,0.84-1.88,0.88-2.72,0.08
	c-0.84-0.81-0.88-1.88-0.08-2.72l2.32-2.46L0.95,7.71C0.14,6.87,0.18,5.79,1.03,4.99c0.84-0.81,1.92-0.77,2.72,0.08l2.17,2.3
	L8.09,5.06z M23,6.48c0-1.15,0.77-1.92,1.92-1.92s1.92,0.77,1.92,1.92v7.37c0,1.15-0.77,1.92-1.92,1.92c-0.77,0-1.38-0.35-1.69-0.92
	C22.4,15.56,21.35,16,20.12,16c-3.22,0-4.34-2.21-4.34-5.47V6.48c0-1.15,0.77-1.92,1.92-1.92c1.15,0,1.92,0.77,1.92,1.92v3.87
	c0,1.15,0.69,1.86,1.5,1.86c1.02,0,1.88-0.88,1.88-2V6.48z M29.71,0c1.06,0,1.92,0.86,1.92,1.92s-0.86,1.92-1.92,1.92
	c-1.05,0-1.92-0.86-1.92-1.92S28.66,0,29.71,0z M31.63,13.85c0,1.15-0.77,1.92-1.92,1.92c-1.15,0-1.92-0.77-1.92-1.92V6.48
	c0-1.15,0.77-1.92,1.92-1.92c1.15,0,1.92,0.77,1.92,1.92V13.85z M13.87,11.93c1.06,0,1.92,0.86,1.92,1.92s-0.86,1.92-1.92,1.92
	c-1.05,0-1.92-0.86-1.92-1.92S12.81,11.93,13.87,11.93z"/>
</svg>
